<svg width="24" height="24" viewBox="0 0 24 24" fill="none" xmlns="http://www.w3.org/2000/svg">
<g clip-path="url(#clip0_272_130)">
<path d="M11.2403 24.0001C10.9127 23.9989 10.5892 23.9265 10.2923 23.7881C9.80731 23.5721 9.4178 23.1865 9.19686 22.7038C8.97592 22.221 8.93874 21.6743 9.0923 21.1661L10.6533 16.0001H6.9753C6.5067 16.0006 6.04449 15.8914 5.6257 15.6812C5.20692 15.4709 4.8432 15.1655 4.56371 14.7894C4.28422 14.4133 4.09673 13.9769 4.01625 13.5153C3.93578 13.0536 3.96456 12.5796 4.1003 12.1311L7.1243 2.13105C7.30863 1.51253 7.68859 0.970475 8.20715 0.58624C8.72571 0.202005 9.35491 -0.00368163 10.0003 4.98893e-05H13.6933C14.1131 0.000401032 14.5265 0.102376 14.8983 0.29726C15.27 0.492143 15.5891 0.774141 15.8282 1.11915C16.0672 1.46417 16.2192 1.86193 16.2712 2.27847C16.3231 2.695 16.2734 3.11791 16.1263 3.51105L14.4433 8.00005H17.0003C17.5454 8.00001 18.0801 8.14846 18.5472 8.42946C19.0142 8.71046 19.3959 9.11338 19.6511 9.59496C19.9064 10.0765 20.0257 10.6186 19.9961 11.1628C19.9665 11.7071 19.7893 12.233 19.4833 12.6841L13.0833 22.9841C12.8855 23.2939 12.6131 23.5492 12.2912 23.7267C11.9692 23.9042 11.6079 23.9982 11.2403 24.0001ZM10.0003 2.00005C9.78555 1.99984 9.57643 2.06877 9.4039 2.19664C9.23136 2.32451 9.10458 2.50453 9.0423 2.71005L6.0183 12.7101C5.97302 12.8595 5.96336 13.0174 5.99008 13.1712C6.01681 13.325 6.07918 13.4705 6.1722 13.5959C6.26522 13.7212 6.3863 13.8231 6.52576 13.8933C6.66522 13.9635 6.81917 14 6.9753 14.0001H12.0003C12.1564 14.0001 12.3104 14.0366 12.4498 14.1068C12.5893 14.177 12.7104 14.2789 12.8034 14.4042C12.8964 14.5296 12.9588 14.6751 12.9855 14.8289C13.0122 14.9827 13.0026 15.1406 12.9573 15.2901L11.0103 21.7321C11.0013 21.7558 10.9973 21.7811 10.9986 21.8064C10.9999 21.8317 11.0065 21.8565 11.0178 21.8791C11.0292 21.9018 11.0452 21.9219 11.0647 21.938C11.0842 21.9542 11.1069 21.9661 11.1313 21.9731C11.1534 21.9872 11.1782 21.9966 11.2042 22.0006C11.2301 22.0046 11.2566 22.0031 11.282 21.9962C11.3073 21.9893 11.331 21.9772 11.3513 21.9607C11.3717 21.9441 11.3884 21.9235 11.4003 21.9001L17.8003 11.6001C17.9122 11.4483 17.9789 11.2679 17.9927 11.0798C18.0065 10.8917 17.9669 10.7036 17.8783 10.5371C17.7962 10.3749 17.6706 10.2387 17.5156 10.1439C17.3605 10.049 17.1821 9.99922 17.0003 10.0001H13.0003C12.8387 10.0002 12.6794 9.96108 12.5362 9.88617C12.393 9.81127 12.2701 9.70276 12.178 9.56996C12.0859 9.43715 12.0273 9.284 12.0073 9.12361C11.9874 8.96323 12.0066 8.80039 12.0633 8.64905L14.2533 2.80905C14.2869 2.71851 14.2982 2.62118 14.2862 2.52534C14.2742 2.42949 14.2392 2.33797 14.1842 2.25855C14.1292 2.17913 14.0559 2.11415 13.9704 2.06915C13.885 2.02414 13.7899 2.00044 13.6933 2.00005H10.0003Z" fill="#E1DDD3"/>
</g>
<defs>
<clipPath id="clip0_272_130">
<rect width="24" height="24" fill="white"/>
</clipPath>
</defs>
</svg>
