<svg width="24" height="24" viewBox="0 0 24 24" fill="none" xmlns="http://www.w3.org/2000/svg">
<g clip-path="url(#clip0_272_142)">
<path d="M1.87855 17.8783C1.00972 19.0779 0.386142 20.4372 0.0435479 21.8783C-0.021894 22.1652 -0.0134617 22.464 0.0680553 22.7467C0.149572 23.0295 0.301508 23.2869 0.509637 23.495C0.717766 23.703 0.97528 23.8548 1.25807 23.9362C1.54086 24.0176 1.83968 24.0259 2.12655 23.9603C3.5654 23.6171 4.92256 22.9939 6.12055 22.1263C6.68387 21.5638 7.00065 20.8005 7.00122 20.0044C7.00178 19.2083 6.68607 18.4446 6.12355 17.8813C5.56102 17.318 4.79776 17.0012 4.00167 17.0006C3.20558 17 2.44187 17.3158 1.87855 17.8783ZM4.70655 20.7073C3.90055 21.2235 3.02508 21.6222 2.10655 21.8913C2.37603 20.9729 2.77468 20.0975 3.29055 19.2913C3.47915 19.1091 3.73175 19.0083 3.99395 19.0106C4.25615 19.0129 4.50696 19.118 4.69237 19.3035C4.87777 19.4889 4.98294 19.7397 4.98522 20.0019C4.9875 20.2641 4.88671 20.5167 4.70455 20.7053L4.70655 20.7073ZM17.9995 8.50027C17.9995 9.16332 17.7362 9.7992 17.2673 10.268C16.7985 10.7369 16.1626 11.0003 15.4995 11.0003C14.8365 11.0003 14.2006 10.7369 13.7318 10.268C13.2629 9.7992 12.9995 9.16332 12.9995 8.50027C12.9995 7.83723 13.2629 7.20135 13.7318 6.73251C14.2006 6.26367 14.8365 6.00027 15.4995 6.00027C16.1626 6.00027 16.7985 6.26367 17.2673 6.73251C17.7362 7.20135 17.9995 7.83723 17.9995 8.50027ZM20.9715 0.000273676C18.5918 -0.013873 16.2408 0.520601 14.1011 1.5622C11.9613 2.6038 10.0904 4.12451 8.63355 6.00627C7.04468 6.0612 5.48631 6.45787 4.06455 7.16927C2.41577 7.9285 1.06979 9.21954 0.242548 10.8353C0.0484173 11.286 -0.0303822 11.7781 0.0132648 12.2669C0.0569119 12.7558 0.221631 13.226 0.492548 13.6353C0.766051 14.0545 1.13983 14.399 1.58004 14.6373C2.02024 14.8757 2.51296 15.0004 3.01355 15.0003H5.49955C6.42643 15.0047 7.31407 15.3749 7.96948 16.0303C8.62489 16.6857 8.99508 17.5734 8.99955 18.5003V20.9863C8.9992 21.4867 9.12365 21.9793 9.36164 22.4195C9.59963 22.8597 9.94365 23.2335 10.3625 23.5073C10.7718 23.7782 11.2421 23.9429 11.7309 23.9866C12.2198 24.0302 12.7118 23.9514 13.1625 23.7573C14.7783 22.93 16.0693 21.5841 16.8285 19.9353C17.5399 18.5135 17.9366 16.9551 17.9915 15.3663C19.8763 13.9057 21.3989 12.0302 22.4409 9.88548C23.4829 7.74077 24.0163 5.38465 23.9995 3.00027C23.9984 2.60428 23.919 2.21241 23.7661 1.84714C23.6132 1.48187 23.3896 1.15038 23.1083 0.871669C22.827 0.592962 22.4935 0.372523 22.1268 0.22299C21.7601 0.0734566 21.3675 -0.00222854 20.9715 0.000273676ZM4.34555 13.0003H3.01355C2.84445 13.0016 2.67778 12.96 2.52912 12.8793C2.38047 12.7987 2.25469 12.6817 2.16355 12.5393C2.07401 12.407 2.01928 12.2542 2.00442 12.0952C1.98957 11.9361 2.01506 11.7759 2.07855 11.6293C2.7229 10.4484 3.73519 9.51019 4.96155 8.95727C5.59518 8.63957 6.26416 8.39789 6.95455 8.23728C5.96058 9.75362 5.08819 11.3463 4.34555 13.0003ZM15.0455 19.0383C14.4926 20.2643 13.5549 21.2765 12.3745 21.9213C12.2278 21.9848 12.0674 22.0104 11.9082 21.9955C11.7489 21.9807 11.596 21.9259 11.4635 21.8363C11.3211 21.7451 11.2041 21.6194 11.1235 21.4707C11.0429 21.322 11.0013 21.1554 11.0025 20.9863V19.6543C12.6566 18.9116 14.2492 18.0392 15.7655 17.0453C15.604 17.7358 15.3613 18.4048 15.0425 19.0383H15.0455ZM15.1805 15.0183C13.8273 15.9581 12.3988 16.7846 10.9095 17.4893C10.7062 16.3974 10.177 15.3926 9.39161 14.6072C8.60623 13.8218 7.60147 13.2926 6.50955 13.0893C7.21473 11.6013 8.04154 10.1742 8.98155 8.82227C12.3495 4.12427 15.8395 2.14727 20.9995 2.00027C21.26 2.00017 21.5102 2.10168 21.6969 2.2832C21.8837 2.46472 21.9923 2.71194 21.9995 2.97227C21.8525 8.16027 19.8755 11.6503 15.1775 15.0183H15.1805Z" fill="#E1DDD3"/>
</g>
<defs>
<clipPath id="clip0_272_142">
<rect width="24" height="24" fill="white"/>
</clipPath>
</defs>
</svg>
