<svg width="24" height="23" viewBox="0 0 24 23" fill="none" xmlns="http://www.w3.org/2000/svg">
<path d="M19 4V2H20C20.2652 2 20.5196 1.89464 20.7071 1.70711C20.8946 1.51957 21 1.26522 21 1C21 0.734784 20.8946 0.48043 20.7071 0.292893C20.5196 0.105357 20.2652 0 20 0H16C15.7348 0 15.4804 0.105357 15.2929 0.292893C15.1054 0.48043 15 0.734784 15 1C15 1.26522 15.1054 1.51957 15.2929 1.70711C15.4804 1.89464 15.7348 2 16 2H17V4H8C8.26522 4 8.51957 3.89464 8.70711 3.70711C8.89464 3.51957 9 3.26522 9 3C9 2.73478 8.89464 2.48043 8.70711 2.29289C8.51957 2.10536 8.26522 2 8 2H4C3.73478 2 3.48043 2.10536 3.29289 2.29289C3.10536 2.48043 3 2.73478 3 3C3 3.26522 3.10536 3.51957 3.29289 3.70711C3.48043 3.89464 3.73478 4 4 4H5C3.6744 4.00159 2.40356 4.52888 1.46622 5.46622C0.528882 6.40356 0.00158786 7.6744 0 9L0 16C0.00127838 16.9718 0.285705 17.9221 0.818499 18.7348C1.35129 19.5475 2.10936 20.1873 3 20.576V22C3 22.2652 3.10536 22.5196 3.29289 22.7071C3.48043 22.8946 3.73478 23 4 23C4.26522 23 4.51957 22.8946 4.70711 22.7071C4.89464 22.5196 5 22.2652 5 22V21H19V22C19 22.2652 19.1054 22.5196 19.2929 22.7071C19.4804 22.8946 19.7348 23 20 23C20.2652 23 20.5196 22.8946 20.7071 22.7071C20.8946 22.5196 21 22.2652 21 22V20.576C21.8906 20.1873 22.6487 19.5475 23.1815 18.7348C23.7143 17.9221 23.9987 16.9718 24 16V9C23.9984 7.6744 23.4711 6.40356 22.5338 5.46622C21.5964 4.52888 20.3256 4.00159 19 4ZM22 16C22 16.7956 21.6839 17.5587 21.1213 18.1213C20.5587 18.6839 19.7956 19 19 19H5C4.20435 19 3.44129 18.6839 2.87868 18.1213C2.31607 17.5587 2 16.7956 2 16V9C2 8.20435 2.31607 7.44129 2.87868 6.87868C3.44129 6.31607 4.20435 6 5 6H19C19.7956 6 20.5587 6.31607 21.1213 6.87868C21.6839 7.44129 22 8.20435 22 9V16ZM16.5 8C15.61 8 14.74 8.26392 13.9999 8.75839C13.2599 9.25285 12.6831 9.95566 12.3425 10.7779C12.0019 11.6002 11.9128 12.505 12.0865 13.3779C12.2601 14.2508 12.6887 15.0526 13.318 15.682C13.9474 16.3113 14.7492 16.7399 15.6221 16.9135C16.495 17.0872 17.3998 16.9981 18.2221 16.6575C19.0443 16.3169 19.7471 15.7401 20.2416 15.0001C20.7361 14.26 21 13.39 21 12.5C20.9987 11.3069 20.5241 10.1631 19.6805 9.31948C18.8369 8.47585 17.6931 8.00132 16.5 8ZM16.5 15C16.0141 14.9994 15.5389 14.8571 15.1326 14.5908C14.7263 14.3244 14.4064 13.9453 14.212 13.5H16C16.2652 13.5 16.5196 13.3946 16.7071 13.2071C16.8946 13.0196 17 12.7652 17 12.5C17 12.2348 16.8946 11.9804 16.7071 11.7929C16.5196 11.6054 16.2652 11.5 16 11.5H14.212C14.3923 11.0868 14.6811 10.73 15.0476 10.4675C15.4142 10.205 15.8449 10.0465 16.2942 10.0088C16.7435 9.97105 17.1946 10.0555 17.5998 10.2533C18.005 10.451 18.3491 10.7547 18.5958 11.1321C18.8425 11.5095 18.9826 11.9465 19.0012 12.397C19.0197 12.8475 18.9161 13.2946 18.7013 13.691C18.4866 14.0874 18.1686 14.4184 17.781 14.6488C17.3935 14.8792 16.9509 15.0006 16.5 15ZM7.5 8C6.61196 8.00097 5.74406 8.26466 5.00559 8.75788C4.26711 9.2511 3.69108 9.9518 3.35002 10.7717C3.00896 11.5917 2.91812 12.4942 3.08895 13.3656C3.25977 14.2371 3.68462 15.0385 4.31 15.669L4.318 15.682L4.331 15.69C4.85541 16.2118 5.50036 16.5962 6.20876 16.8093C6.91717 17.0224 7.66718 17.0575 8.39241 16.9116C9.11764 16.7657 9.79572 16.4433 10.3666 15.9729C10.9375 15.5024 11.3837 14.8985 11.6655 14.2145C11.9474 13.5306 12.0563 12.7877 11.9825 12.0516C11.9088 11.3155 11.6548 10.609 11.2429 9.99449C10.831 9.38001 10.274 8.87654 9.62116 8.52865C8.96831 8.18076 8.23976 7.99919 7.5 8ZM7.5 15C7.18858 14.9986 6.88021 14.9385 6.591 14.823L7.854 13.561C8.04164 13.3734 8.14706 13.1189 8.14706 12.8535C8.14706 12.5881 8.04164 12.3336 7.854 12.146C7.66636 11.9584 7.41186 11.8529 7.1465 11.8529C6.88114 11.8529 6.62664 11.9584 6.439 12.146L5.177 13.409C4.9827 12.9112 4.95302 12.3642 5.09233 11.8483C5.23164 11.3324 5.5326 10.8747 5.95107 10.5423C6.36953 10.21 6.88349 10.0205 7.41754 10.0016C7.9516 9.98268 8.47766 10.1354 8.91856 10.4374C9.35945 10.7394 9.69199 11.1747 9.86739 11.6794C10.0428 12.1842 10.0518 12.7319 9.89317 13.2422C9.73451 13.7525 9.41652 14.1986 8.98582 14.5149C8.55512 14.8312 8.03439 15.0013 7.5 15Z" fill="#E1DDD3"/>
</svg>
