<svg width="30" height="30" viewBox="0 0 30 30" fill="none" xmlns="http://www.w3.org/2000/svg">
<g id="fi-rr-messages" clip-path="url(#clip0_27_287)">
<path id="Vector" d="M23.75 5H22.3738C21.7925 2.15125 19.2675 0 16.25 0H6.25C2.80375 0 0 2.80375 0 6.25V22.3175C0 23.31 0.54375 24.2175 1.4175 24.685C1.815 24.8987 2.25125 25.0037 2.68625 25.0037C3.20625 25.0037 3.725 24.8525 4.17375 24.5537L7.86125 22.095C8.725 24.5138 11.0375 26.25 13.75 26.25H20.8713L25.8262 29.5537C26.2762 29.8538 26.7937 30.005 27.3137 30.005C27.7488 30.005 28.1837 29.8987 28.5825 29.685C29.4575 29.2175 30 28.31 30 27.3175V11.25C30 7.80375 27.1963 5 23.75 5ZM2.7875 22.4738C2.76375 22.4888 2.69375 22.5338 2.5975 22.4825C2.49875 22.43 2.49875 22.3462 2.49875 22.3187V6.25C2.49875 4.1825 4.18125 2.5 6.24875 2.5H16.2487C18.3162 2.5 19.9987 4.1825 19.9987 6.25V15C19.9987 17.0675 18.3162 18.75 16.2487 18.75H8.74875C8.34 18.75 8.0725 18.9487 8.0425 18.9688L2.7875 22.4738ZM27.5 27.3187C27.5 27.345 27.5 27.43 27.4012 27.4825C27.3025 27.5338 27.235 27.4888 27.2125 27.4738L21.9438 23.96C21.7388 23.8237 21.4975 23.75 21.25 23.75H13.75C12.12 23.75 10.7312 22.705 10.215 21.25H16.25C19.6963 21.25 22.5 18.4463 22.5 15V7.5H23.75C25.8175 7.5 27.5 9.1825 27.5 11.25V27.3187Z" fill="#303230"/>
</g>
<defs>
<clipPath id="clip0_27_287">
<rect width="30" height="30" fill="white"/>
</clipPath>
</defs>
</svg>
