<svg width="24" height="24" viewBox="0 0 24 24" fill="none" xmlns="http://www.w3.org/2000/svg">
<g id="fi-rr-moon-stars" clip-path="url(#clip0_264_140)">
<path id="Vector" d="M12.0093 23.9997C10.3289 23.9897 8.66906 23.6287 7.13621 22.94C5.60335 22.2513 4.23125 21.25 3.10778 20.0003C1.98432 18.7506 1.13426 17.28 0.612057 15.6828C0.0898579 14.0855 -0.0929687 12.3968 0.0752887 10.7247C0.374259 8.11385 1.51367 5.67084 3.32184 3.76383C5.13001 1.85682 7.50898 0.589116 10.1003 0.151743C11.7744 -0.10799 13.4831 -0.0380111 15.1303 0.357743C15.564 0.469068 15.9599 0.694848 16.2765 1.01149C16.5932 1.32813 16.819 1.72401 16.9303 2.15774C17.0424 2.58755 17.0366 3.03964 16.9134 3.46641C16.7902 3.89318 16.5542 4.27883 16.2303 4.58274C11.6713 8.75074 12.0653 15.2277 17.0373 18.9947C17.3885 19.2707 17.6594 19.6356 17.8218 20.0517C17.9842 20.4678 18.0321 20.9197 17.9607 21.3606C17.8892 21.8015 17.701 22.2152 17.4155 22.5587C17.13 22.9022 16.7577 23.1629 16.3373 23.3137C14.9401 23.7702 13.4792 24.0018 12.0093 23.9997ZM12.0833 1.99974C11.5225 1.99843 10.9625 2.04089 10.4083 2.12674C8.25228 2.49253 6.27323 3.5482 4.76857 5.13508C3.26392 6.72197 2.31495 8.75434 2.06429 10.9267C1.90836 12.3268 2.05215 13.744 2.48612 15.0842C2.92009 16.4244 3.6343 17.6568 4.58129 18.6997C5.96704 20.1806 7.75295 21.2273 9.72215 21.7126C11.6913 22.1979 13.7591 22.1011 15.6743 21.4337C15.7565 21.4026 15.8291 21.3504 15.8847 21.2822C15.9403 21.2141 15.977 21.1325 15.991 21.0457C16.005 20.9589 15.9958 20.8699 15.9645 20.7877C15.9331 20.7056 15.8806 20.6331 15.8123 20.5777C9.88329 16.0997 9.41729 8.08674 14.8653 3.12374C14.9275 3.06564 14.9723 2.99137 14.9947 2.90926C15.0172 2.82714 15.0163 2.7404 14.9923 2.65874C14.9716 2.57169 14.9275 2.49196 14.8647 2.42816C14.802 2.36436 14.723 2.31891 14.6363 2.29674C13.8003 2.09533 12.9431 1.99561 12.0833 1.99974ZM20.5003 11.9997C20.2774 11.9997 20.0608 11.9252 19.8851 11.7881C19.7093 11.6509 19.5845 11.459 19.5303 11.2427L19.1723 9.81274L17.7403 9.42775C17.5249 9.36977 17.3351 9.24147 17.2011 9.06324C17.067 8.88501 16.9964 8.66707 17.0004 8.44408C17.0044 8.22109 17.0829 8.00584 17.2233 7.83256C17.3637 7.65928 17.558 7.53791 17.7753 7.48774L19.1753 7.16274L19.5263 5.75674C19.5805 5.54052 19.7054 5.3486 19.8811 5.21146C20.0569 5.07433 20.2734 4.99985 20.4963 4.99985C20.7192 4.99985 20.9357 5.07433 21.1115 5.21146C21.2872 5.3486 21.4121 5.54052 21.4663 5.75674L21.8213 7.17474L23.2393 7.52974C23.4555 7.58394 23.6474 7.70882 23.7846 7.88456C23.9217 8.06031 23.9962 8.27683 23.9962 8.49974C23.9962 8.72266 23.9217 8.93918 23.7846 9.11493C23.6474 9.29067 23.4555 9.41555 23.2393 9.46974L21.8213 9.82474L21.4663 11.2427C21.4123 11.4583 21.288 11.6498 21.1131 11.7869C20.9381 11.9239 20.7225 11.9988 20.5003 11.9997ZM16.0003 13.9997C16.0003 14.265 16.1056 14.5193 16.2932 14.7069C16.4807 14.8944 16.7351 14.9997 17.0003 14.9997C17.2655 14.9997 17.5199 14.8944 17.7074 14.7069C17.8949 14.5193 18.0003 14.265 18.0003 13.9997C18.0003 13.7345 17.8949 13.4802 17.7074 13.2926C17.5199 13.1051 17.2655 12.9997 17.0003 12.9997C16.7351 12.9997 16.4807 13.1051 16.2932 13.2926C16.1056 13.4802 16.0003 13.7345 16.0003 13.9997ZM22.0003 17.9997C22.0003 18.265 22.1056 18.5193 22.2932 18.7069C22.4807 18.8944 22.7351 18.9997 23.0003 18.9997C23.2655 18.9997 23.5199 18.8944 23.7074 18.7069C23.8949 18.5193 24.0003 18.265 24.0003 17.9997C24.0003 17.7345 23.8949 17.4802 23.7074 17.2926C23.5199 17.1051 23.2655 16.9997 23.0003 16.9997C22.7351 16.9997 22.4807 17.1051 22.2932 17.2926C22.1056 17.4802 22.0003 17.7345 22.0003 17.9997Z" fill="#303230"/>
</g>
<defs>
<clipPath id="clip0_264_140">
<rect width="24" height="24" fill="white"/>
</clipPath>
</defs>
</svg>
