<svg width="30" height="30" viewBox="0 0 30 30" fill="none" xmlns="http://www.w3.org/2000/svg">
<g id="fi-rr-together-people" clip-path="url(#clip0_27_292)">
<path id="Vector" d="M20.625 3.125C20.625 1.39875 22.0238 0 23.75 0C25.4762 0 26.875 1.39875 26.875 3.125C26.875 4.85125 25.4762 6.25 23.75 6.25C22.0238 6.25 20.625 4.85125 20.625 3.125ZM25 7.5H21.25C20.5588 7.5 20 8.06 20 8.75C20 9.44 20.5588 10 21.25 10H25C26.3787 10 27.5 11.1213 27.5 12.5V16.25C27.5 17.6287 26.3787 18.75 25 18.75C24.3088 18.75 23.75 19.31 23.75 20C23.75 20.69 24.3088 21.25 25 21.25V28.75C25 29.44 25.5588 30 26.25 30C26.9412 30 27.5 29.44 27.5 28.75V20.555C28.9875 19.6875 30 18.0925 30 16.25V12.5C30 9.7425 27.7575 7.5 25 7.5ZM6.25 6.25C7.97625 6.25 9.375 4.85125 9.375 3.125C9.375 1.39875 7.97625 0 6.25 0C4.52375 0 3.125 1.39875 3.125 3.125C3.125 4.85125 4.52375 6.25 6.25 6.25ZM7.5 18.75H5C3.62125 18.75 2.5 17.6287 2.5 16.25V12.5C2.5 11.1213 3.62125 10 5 10H6.25C6.94125 10 7.5 9.44 7.5 8.75C7.5 8.06 6.94125 7.5 6.25 7.5H5C2.2425 7.5 0 9.7425 0 12.5V16.25C0 18.0925 1.0125 19.6875 2.5 20.555V28.75C2.5 29.44 3.05875 30 3.75 30C4.44125 30 5 29.44 5 28.75V21.25H7.5V28.75C7.5 29.44 8.05875 30 8.75 30C9.44125 30 10 29.44 10 28.75V21.25C10 19.8713 8.87875 18.75 7.5 18.75ZM9.5325 14.325L11.6425 16.435C11.8863 16.6787 12.2063 16.8013 12.5262 16.8013C12.8462 16.8013 13.1662 16.6787 13.41 16.435C13.8987 15.9462 13.8987 15.155 13.41 14.6675L12.54 13.75H17.5C18.1912 13.75 18.75 13.19 18.75 12.5C18.75 11.81 18.1912 11.25 17.5 11.25H12.4925L13.41 10.3325C13.8987 9.845 13.8987 9.05375 13.41 8.565C12.9212 8.07625 12.1313 8.07625 11.6425 8.565L9.5325 10.675C8.52625 11.6812 8.52625 13.3188 9.5325 14.325ZM20.4675 18.175L18.3575 16.065C17.8687 15.5763 17.0788 15.5763 16.59 16.065C16.1012 16.5538 16.1012 17.345 16.59 17.8325L17.46 18.75H12.5C11.8088 18.75 11.25 19.31 11.25 20C11.25 20.69 11.8088 21.25 12.5 21.25H17.5075L16.59 22.1675C16.1012 22.655 16.1012 23.4463 16.59 23.935C16.8337 24.1788 17.1537 24.3013 17.4738 24.3013C17.7938 24.3013 18.1138 24.1788 18.3575 23.935L20.4675 21.825C21.4738 20.8187 21.4738 19.1812 20.4675 18.175ZM21.25 25C20.5588 25 20 25.56 20 26.25V28.75C20 29.44 20.5588 30 21.25 30C21.9412 30 22.5 29.44 22.5 28.75V26.25C22.5 25.56 21.9412 25 21.25 25Z" fill="#303230"/>
</g>
<defs>
<clipPath id="clip0_27_292">
<rect width="30" height="30" fill="white"/>
</clipPath>
</defs>
</svg>
