<svg width="30" height="30" viewBox="0 0 30 30" fill="none" xmlns="http://www.w3.org/2000/svg">
<g id="fi-rr-sun" clip-path="url(#clip0_27_299)">
<path id="Vector" d="M28.75 13.75H23.65C23.5526 13.0613 23.3726 12.3869 23.1137 11.7412L27.5225 9.18625C27.6698 9.10696 27.7998 8.99889 27.9046 8.86845C28.0094 8.73801 28.0869 8.58786 28.1326 8.4269C28.1783 8.26593 28.1912 8.09743 28.1706 7.93138C28.15 7.76533 28.0962 7.60512 28.0125 7.46023C27.9288 7.31534 27.8169 7.18874 27.6833 7.08791C27.5498 6.98709 27.3974 6.91411 27.2351 6.87329C27.0728 6.83246 26.904 6.82464 26.7387 6.85027C26.5733 6.8759 26.4148 6.93447 26.2725 7.0225L21.86 9.58125C21.4382 9.04839 20.9562 8.56603 20.4238 8.14375L22.9813 3.73C23.1353 3.44382 23.1718 3.1089 23.083 2.79626C22.9942 2.48363 22.7872 2.21785 22.5058 2.05528C22.2244 1.89271 21.8907 1.84613 21.5756 1.92542C21.2604 2.0047 20.9885 2.20362 20.8175 2.48L18.2588 6.88625C17.6132 6.62716 16.9388 6.4471 16.25 6.35V1.25C16.25 0.918479 16.1183 0.600537 15.8839 0.366117C15.6495 0.131696 15.3315 0 15 0C14.6685 0 14.3505 0.131696 14.1161 0.366117C13.8817 0.600537 13.75 0.918479 13.75 1.25V6.35C13.0612 6.4471 12.3868 6.62716 11.7412 6.88625L9.18625 2.4775C9.01527 2.20112 8.74336 2.0022 8.42819 1.92292C8.11302 1.84363 7.77936 1.89021 7.49795 2.05278C7.21654 2.21535 7.00951 2.48113 6.92075 2.79376C6.832 3.1064 6.86849 3.44132 7.0225 3.7275L9.58 8.14375C9.04751 8.56603 8.56557 9.04839 8.14375 9.58125L3.73125 7.0225C3.58895 6.93447 3.43043 6.8759 3.26508 6.85027C3.09973 6.82464 2.93092 6.83246 2.76865 6.87329C2.60638 6.91411 2.45395 6.98709 2.32041 7.08791C2.18688 7.18874 2.07494 7.31534 1.99124 7.46023C1.90754 7.60512 1.85378 7.76533 1.83314 7.93138C1.81251 8.09743 1.82543 8.26593 1.87112 8.4269C1.91682 8.58786 1.99437 8.73801 2.09917 8.86845C2.20398 8.99889 2.3339 9.10696 2.48125 9.18625L6.88625 11.7412C6.62743 12.3869 6.44738 13.0613 6.35 13.75H1.25C0.918479 13.75 0.600537 13.8817 0.366117 14.1161C0.131696 14.3505 0 14.6685 0 15C0 15.3315 0.131696 15.6495 0.366117 15.8839C0.600537 16.1183 0.918479 16.25 1.25 16.25H6.35C6.44738 16.9387 6.62743 17.6131 6.88625 18.2588L2.4775 20.8137C2.33015 20.893 2.20023 21.0011 2.09542 21.1315C1.99062 21.262 1.91307 21.4121 1.86737 21.5731C1.82168 21.7341 1.80876 21.9026 1.82939 22.0686C1.85003 22.2347 1.90379 22.3949 1.98749 22.5398C2.07119 22.6847 2.18313 22.8113 2.31666 22.9121C2.4502 23.0129 2.60263 23.0859 2.7649 23.1267C2.92717 23.1675 3.09598 23.1754 3.26133 23.1497C3.42668 23.1241 3.5852 23.0655 3.7275 22.9775L8.14 20.4187C8.56182 20.9516 9.04376 21.434 9.57625 21.8563L7.0225 26.27C6.86849 26.5562 6.832 26.8911 6.92075 27.2037C7.00951 27.5164 7.21654 27.7822 7.49795 27.9447C7.77936 28.1073 8.11302 28.1539 8.42819 28.0746C8.74336 27.9953 9.01527 27.7964 9.18625 27.52L11.7412 23.1112C12.3868 23.3707 13.0613 23.5515 13.75 23.65V28.75C13.75 29.0815 13.8817 29.3995 14.1161 29.6339C14.3505 29.8683 14.6685 30 15 30C15.3315 30 15.6495 29.8683 15.8839 29.6339C16.1183 29.3995 16.25 29.0815 16.25 28.75V23.65C16.9386 23.5523 17.6131 23.3723 18.2588 23.1137L20.8137 27.5225C20.9847 27.7989 21.2566 27.9978 21.5718 28.0771C21.887 28.1564 22.2206 28.1098 22.5021 27.9472C22.7835 27.7847 22.9905 27.5189 23.0792 27.2062C23.168 26.8936 23.1315 26.5587 22.9775 26.2725L20.42 21.8587C20.9525 21.4365 21.4344 20.9541 21.8563 20.4212L26.2687 22.98C26.411 23.068 26.5696 23.1266 26.7349 23.1522C26.9003 23.1779 27.0691 23.17 27.2314 23.1292C27.3936 23.0884 27.546 23.0154 27.6796 22.9146C27.8131 22.8138 27.9251 22.6872 28.0088 22.5423C28.0925 22.3974 28.1462 22.2372 28.1669 22.0711C28.1875 21.9051 28.1746 21.7366 28.1289 21.5756C28.0832 21.4146 28.0056 21.2645 27.9008 21.1341C27.796 21.0036 27.6661 20.8955 27.5187 20.8162L23.11 18.2612C23.3703 17.615 23.5516 16.9397 23.65 16.25H28.75C29.0815 16.25 29.3995 16.1183 29.6339 15.8839C29.8683 15.6495 30 15.3315 30 15C30 14.6685 29.8683 14.3505 29.6339 14.1161C29.3995 13.8817 29.0815 13.75 28.75 13.75ZM15 21.25C6.74 20.9875 6.7425 9.01125 15 8.75C23.26 9.0125 23.2575 20.9888 15 21.25Z" fill="#303230"/>
</g>
<defs>
<clipPath id="clip0_27_299">
<rect width="30" height="30" fill="white"/>
</clipPath>
</defs>
</svg>
