<svg width="24" height="22" viewBox="0 0 24 22" fill="none" xmlns="http://www.w3.org/2000/svg">
<path d="M17.5048 0C16.3788 0.0175149 15.2773 0.331853 14.3116 0.911271C13.3459 1.49069 12.5502 2.31467 12.0048 3.3C11.4595 2.31467 10.6638 1.49069 9.69808 0.911271C8.73238 0.331853 7.63089 0.0175149 6.50484 0C4.70978 0.0779907 3.01855 0.863254 1.80062 2.18423C0.582701 3.50521 -0.0629094 5.25453 0.0048411 7.05C0.0048411 11.597 4.79084 16.563 8.80484 19.93C9.70106 20.6831 10.8342 21.096 12.0048 21.096C13.1755 21.096 14.3086 20.6831 15.2048 19.93C19.2188 16.563 24.0048 11.597 24.0048 7.05C24.0726 5.25453 23.427 3.50521 22.2091 2.18423C20.9911 0.863254 19.2999 0.0779907 17.5048 0Z" fill="#ff0000"/>
</svg>
