<svg width="24" height="24" viewBox="0 0 24 24" fill="none" xmlns="http://www.w3.org/2000/svg">
<path d="M23 22.0003H20V6.00034C20 3.79434 18.206 2.00034 16 2.00034H15.465C15.227 1.58934 14.915 1.21834 14.536 0.908336C13.606 0.146336 12.396 -0.156664 11.216 0.0793362L8.019 0.718336C5.69 1.18434 4 3.24634 4 5.62134V22.0003H1C0.448 22.0003 0 22.4473 0 23.0003C0 23.5533 0.448 24.0003 1 24.0003H23C23.552 24.0003 24 23.5533 24 23.0003C24 22.4473 23.552 22.0003 23 22.0003ZM16 4.00034C17.103 4.00034 18 4.89734 18 6.00034V22.0003H16V4.00034ZM6 5.62134C6 4.19534 7.014 2.95834 8.411 2.67934L11.607 2.04034C12.197 1.92134 12.802 2.07334 13.268 2.45534C13.733 2.83634 13.999 3.39934 13.999 4.00134V22.0003H6V5.62134ZM12 12.5003C12 13.3283 11.328 14.0003 10.5 14.0003C9.672 14.0003 9 13.3283 9 12.5003C9 11.6723 9.672 11.0003 10.5 11.0003C11.328 11.0003 12 11.6723 12 12.5003Z" fill="#303230"/>
</svg>
