<svg width="30" height="30" viewBox="0 0 30 30" fill="none" xmlns="http://www.w3.org/2000/svg">
<g id="fi-rr-settings" clip-path="url(#clip0_27_281)">
<path id="Vector" d="M15 10C14.0111 10 13.0444 10.2932 12.2222 10.8427C11.3999 11.3921 10.759 12.173 10.3806 13.0866C10.0022 14.0002 9.90315 15.0055 10.0961 15.9755C10.289 16.9454 10.7652 17.8363 11.4645 18.5355C12.1637 19.2348 13.0546 19.711 14.0246 19.9039C14.9945 20.0969 15.9998 19.9978 16.9134 19.6194C17.8271 19.241 18.6079 18.6001 19.1574 17.7779C19.7068 16.9556 20 15.9889 20 15C20 13.6739 19.4732 12.4021 18.5355 11.4645C17.5979 10.5268 16.3261 10 15 10ZM15 17.5C14.5055 17.5 14.0222 17.3534 13.6111 17.0787C13.2 16.804 12.8795 16.4135 12.6903 15.9567C12.5011 15.4999 12.4516 14.9972 12.548 14.5123C12.6445 14.0273 12.8826 13.5819 13.2322 13.2322C13.5819 12.8826 14.0273 12.6445 14.5123 12.548C14.9972 12.4516 15.4999 12.5011 15.9567 12.6903C16.4135 12.8795 16.804 13.2 17.0787 13.6111C17.3534 14.0222 17.5 14.5055 17.5 15C17.5 15.663 17.2366 16.2989 16.7678 16.7678C16.2989 17.2366 15.663 17.5 15 17.5Z" fill="#303230"/>
<path id="Vector_2" d="M26.6175 17.375L26.0625 17.055C26.3124 15.6956 26.3124 14.3019 26.0625 12.9425L26.6175 12.6225C27.0443 12.3763 27.4184 12.0484 27.7185 11.6576C28.0186 11.2668 28.2387 10.8207 28.3664 10.3448C28.4941 9.86887 28.5268 9.37248 28.4626 8.88395C28.3985 8.39541 28.2387 7.9243 27.9925 7.4975C27.7463 7.0707 27.4184 6.69659 27.0276 6.3965C26.6368 6.09642 26.1907 5.87626 25.7148 5.74858C25.2389 5.6209 24.7425 5.5882 24.2539 5.65236C23.7654 5.71652 23.2943 5.87627 22.8675 6.1225L22.3112 6.44375C21.2607 5.54615 20.0533 4.85031 18.75 4.39125V3.75C18.75 2.75544 18.3549 1.80161 17.6516 1.09835C16.9484 0.395088 15.9946 0 15 0C14.0054 0 13.0516 0.395088 12.3483 1.09835C11.6451 1.80161 11.25 2.75544 11.25 3.75V4.39125C9.94673 4.85196 8.7398 5.5495 7.68999 6.44875L7.13124 6.125C6.26929 5.62772 5.24509 5.49322 4.28397 5.75108C3.32285 6.00894 2.50352 6.63805 2.00624 7.5C1.50896 8.36195 1.37446 9.38615 1.63232 10.3473C1.89018 11.3084 2.51929 12.1277 3.38124 12.625L3.93624 12.945C3.68638 14.3044 3.68638 15.6981 3.93624 17.0575L3.38124 17.3775C2.51929 17.8748 1.89018 18.6941 1.63232 19.6552C1.37446 20.6164 1.50896 21.6405 2.00624 22.5025C2.50352 23.3645 3.32285 23.9936 4.28397 24.2514C5.24509 24.5093 6.26929 24.3748 7.13124 23.8775L7.68749 23.5562C8.73845 24.454 9.94622 25.1498 11.25 25.6087V26.25C11.25 27.2446 11.6451 28.1984 12.3483 28.9017C13.0516 29.6049 14.0054 30 15 30C15.9946 30 16.9484 29.6049 17.6516 28.9017C18.3549 28.1984 18.75 27.2446 18.75 26.25V25.6087C20.0533 25.148 21.2602 24.4505 22.31 23.5513L22.8687 23.8738C23.7307 24.371 24.7549 24.5055 25.716 24.2477C26.6771 23.9898 27.4965 23.3607 27.9937 22.4988C28.491 21.6368 28.6255 20.6126 28.3677 19.6515C28.1098 18.6904 27.4807 17.871 26.6187 17.3738L26.6175 17.375ZM23.4325 12.655C23.8558 14.1888 23.8558 15.8087 23.4325 17.3425C23.3586 17.6095 23.3754 17.8934 23.4804 18.1498C23.5854 18.4061 23.7726 18.6203 24.0125 18.7588L25.3675 19.5413C25.6548 19.707 25.8644 19.9801 25.9503 20.3004C26.0362 20.6208 25.9914 20.9621 25.8256 21.2494C25.6599 21.5366 25.3868 21.7463 25.0664 21.8322C24.7461 21.9181 24.4048 21.8733 24.1175 21.7075L22.76 20.9225C22.5199 20.7834 22.2403 20.7282 21.9653 20.7655C21.6903 20.8029 21.4356 20.9307 21.2412 21.1287C20.1286 22.2646 18.727 23.075 17.1875 23.4725C16.9188 23.5416 16.6807 23.6981 16.5107 23.9174C16.3408 24.1367 16.2486 24.4063 16.2487 24.6838V26.25C16.2487 26.5815 16.117 26.8995 15.8826 27.1339C15.6482 27.3683 15.3303 27.5 14.9987 27.5C14.6672 27.5 14.3493 27.3683 14.1149 27.1339C13.8804 26.8995 13.7487 26.5815 13.7487 26.25V24.685C13.7489 24.4076 13.6567 24.1379 13.4867 23.9186C13.3168 23.6994 13.0787 23.5428 12.81 23.4737C11.2704 23.0746 9.86915 22.2624 8.75749 21.125C8.56315 20.9269 8.30841 20.7991 8.03344 20.7618C7.75846 20.7244 7.47887 20.7797 7.23874 20.9188L5.88374 21.7025C5.74153 21.7859 5.58423 21.8403 5.4209 21.8626C5.25757 21.885 5.09143 21.8748 4.93206 21.8326C4.77269 21.7905 4.62322 21.7172 4.49227 21.6171C4.36132 21.517 4.25146 21.3919 4.16904 21.2492C4.08661 21.1064 4.03324 20.9487 4.01199 20.7853C3.99074 20.6218 4.00204 20.4557 4.04523 20.2966C4.08842 20.1375 4.16266 19.9886 4.26366 19.8583C4.36466 19.728 4.49044 19.619 4.63374 19.5375L5.98874 18.755C6.22868 18.6166 6.41584 18.4024 6.52082 18.146C6.6258 17.8897 6.64266 17.6057 6.56874 17.3388C6.14544 15.8049 6.14544 14.1851 6.56874 12.6513C6.64133 12.3849 6.62366 12.1019 6.51851 11.8466C6.41336 11.5913 6.22664 11.378 5.98749 11.24L4.63249 10.4575C4.34523 10.2917 4.13558 10.0187 4.04967 9.69832C3.96375 9.37798 4.00861 9.03664 4.17437 8.74937C4.34013 8.46211 4.61321 8.25246 4.93355 8.16655C5.25388 8.08063 5.59523 8.12549 5.88249 8.29125L7.23999 9.07625C7.47947 9.21564 7.75847 9.27151 8.03315 9.23509C8.30784 9.19866 8.56263 9.07199 8.75749 8.875C9.8701 7.73918 11.2718 6.92878 12.8112 6.53125C13.0808 6.46195 13.3195 6.30469 13.4895 6.08438C13.6596 5.86406 13.7512 5.5933 13.75 5.315V3.75C13.75 3.41848 13.8817 3.10054 14.1161 2.86612C14.3505 2.6317 14.6685 2.5 15 2.5C15.3315 2.5 15.6495 2.6317 15.8839 2.86612C16.1183 3.10054 16.25 3.41848 16.25 3.75V5.315C16.2499 5.59245 16.342 5.86206 16.512 6.08135C16.6819 6.30065 16.92 6.45717 17.1887 6.52625C18.7288 6.92519 20.1305 7.73735 21.2425 8.875C21.4368 9.07308 21.6916 9.20087 21.9665 9.23821C22.2415 9.27555 22.5211 9.22033 22.7612 9.08125L24.1162 8.2975C24.2585 8.21413 24.4158 8.15971 24.5791 8.13738C24.7424 8.11505 24.9086 8.12524 25.0679 8.16738C25.2273 8.20951 25.3768 8.28276 25.5077 8.38289C25.6387 8.48303 25.7485 8.60808 25.8309 8.75084C25.9134 8.8936 25.9667 9.05126 25.988 9.21474C26.0092 9.37821 25.9979 9.54427 25.9548 9.70337C25.9116 9.86246 25.8373 10.0114 25.7363 10.1417C25.6353 10.272 25.5096 10.381 25.3662 10.4625L24.0112 11.245C23.7726 11.3834 23.5864 11.5968 23.4817 11.8521C23.377 12.1074 23.3597 12.3901 23.4325 12.6562V12.655Z" fill="#303230"/>
</g>
<defs>
<clipPath id="clip0_27_281">
<rect width="30" height="30" fill="white"/>
</clipPath>
</defs>
</svg>
