<svg width="24" height="24" viewBox="0 0 24 24" fill="none" xmlns="http://www.w3.org/2000/svg">
<g id="fi-sr-chess-queen" clip-path="url(#clip0_28_341)">
<path id="Vector" d="M4.00895 7.88062C5.55278 5.9541 7.73367 4.64203 10.159 4.18062C9.83053 3.82314 9.61329 3.37778 9.53374 2.8989C9.4542 2.42002 9.5158 1.92833 9.71102 1.48388C9.90624 1.03942 10.2266 0.661411 10.6331 0.396C11.0396 0.13059 11.5145 -0.0107422 12 -0.0107422C12.4854 -0.0107422 12.9603 0.13059 13.3668 0.396C13.7733 0.661411 14.0937 1.03942 14.2889 1.48388C14.4841 1.92833 14.5457 2.42002 14.4662 2.8989C14.3866 3.37778 14.1694 3.82314 13.841 4.18062C16.2662 4.64203 18.4471 5.9541 19.991 7.88062C18.6867 8.85462 17.6387 10.1309 16.937 11.5996C16.3859 10.7994 15.6485 10.145 14.7884 9.693C13.9282 9.24097 12.9711 9.00479 11.9995 9.00479C11.0278 9.00479 10.0707 9.24097 9.21054 9.693C8.35042 10.145 7.61305 10.7994 7.06195 11.5996C6.36091 10.1307 5.31313 8.85439 4.00895 7.88062ZM21.032 21.9996H2.96795C2.70274 22.0039 2.45007 22.1133 2.26553 22.3038C2.081 22.4944 1.97971 22.7504 1.98395 23.0156C1.9882 23.2808 2.09762 23.5335 2.28816 23.718C2.4787 23.9026 2.73474 24.0039 2.99995 23.9996H21C21.2652 24.0039 21.5212 23.9026 21.7117 23.718C21.9023 23.5335 22.0117 23.2808 22.016 23.0156C22.0202 22.7504 21.9189 22.4944 21.7344 22.3038C21.5498 22.1133 21.2972 22.0039 21.032 21.9996ZM21.585 19.9996C21.585 19.9996 24 11.2516 24 10.4996C24.0071 10.3007 23.9732 10.1025 23.9003 9.91727C23.8275 9.73205 23.7172 9.56383 23.5765 9.4231C23.4357 9.28236 23.2675 9.17213 23.0823 9.09927C22.8971 9.02641 22.6989 8.99249 22.5 8.99962C20.5 8.99962 18 12.8546 18 14.9996C18 15.2648 17.8946 15.5192 17.7071 15.7067C17.5195 15.8943 17.2652 15.9996 17 15.9996C16.7347 15.9996 16.4804 15.8943 16.2928 15.7067C16.1053 15.5192 16 15.2648 16 14.9996C16 13.9388 15.5785 12.9213 14.8284 12.1712C14.0782 11.4211 13.0608 10.9996 12 10.9996C10.9391 10.9996 9.92167 11.4211 9.17153 12.1712C8.42138 12.9213 7.99995 13.9388 7.99995 14.9996C7.99995 15.2648 7.8946 15.5192 7.70706 15.7067C7.51952 15.8943 7.26517 15.9996 6.99995 15.9996C6.73474 15.9996 6.48038 15.8943 6.29285 15.7067C6.10531 15.5192 5.99995 15.2648 5.99995 14.9996C5.99995 12.8546 3.49995 8.99962 1.49995 8.99962C1.30105 8.99249 1.10281 9.02641 0.917597 9.09927C0.732382 9.17213 0.564161 9.28236 0.423426 9.4231C0.28269 9.56383 0.172457 9.73205 0.0995989 9.91727C0.0267412 10.1025 -0.0071787 10.3007 -4.56267e-05 10.4996C-4.56267e-05 11.2516 2.41495 19.9996 2.41495 19.9996H21.585Z" fill="#E1DDD3"/>
</g>
<defs>
<clipPath id="clip0_28_341">
<rect width="24" height="24" fill="white"/>
</clipPath>
</defs>
</svg>
