<svg width="25" height="24" viewBox="0 0 25 24" fill="none" xmlns="http://www.w3.org/2000/svg">
<g id="fi-rr-checkbox" clip-path="url(#clip0_296_527)">
<path id="Vector" d="M19.5 0H5.5C4.1744 0.00158786 2.90356 0.528882 1.96622 1.46622C1.02888 2.40356 0.501588 3.6744 0.5 5L0.5 19C0.501588 20.3256 1.02888 21.5964 1.96622 22.5338C2.90356 23.4711 4.1744 23.9984 5.5 24H19.5C20.8256 23.9984 22.0964 23.4711 23.0338 22.5338C23.9711 21.5964 24.4984 20.3256 24.5 19V5C24.4984 3.6744 23.9711 2.40356 23.0338 1.46622C22.0964 0.528882 20.8256 0.00158786 19.5 0ZM22.5 19C22.5 19.7956 22.1839 20.5587 21.6213 21.1213C21.0587 21.6839 20.2956 22 19.5 22H5.5C4.70435 22 3.94129 21.6839 3.37868 21.1213C2.81607 20.5587 2.5 19.7956 2.5 19V5C2.5 4.20435 2.81607 3.44129 3.37868 2.87868C3.94129 2.31607 4.70435 2 5.5 2H19.5C20.2956 2 21.0587 2.31607 21.6213 2.87868C22.1839 3.44129 22.5 4.20435 22.5 5V19Z" fill="#151A2D"/>
<path id="Vector_2" d="M9.83306 15.9191L5.91406 12.0001C5.72653 11.8126 5.47223 11.7073 5.20706 11.7073C4.9419 11.7073 4.68759 11.8126 4.50006 12.0001C4.31259 12.1876 4.20728 12.4419 4.20728 12.7071C4.20728 12.9722 4.31259 13.2265 4.50006 13.4141L8.41906 17.3331C8.60479 17.5189 8.8253 17.6662 9.06801 17.7668C9.31071 17.8674 9.57085 17.9191 9.83356 17.9191C10.0963 17.9191 10.3564 17.8674 10.5991 17.7668C10.8418 17.6662 11.0623 17.5189 11.2481 17.3331L20.5001 8.08105C20.6875 7.89353 20.7928 7.63922 20.7928 7.37405C20.7928 7.10889 20.6875 6.85458 20.5001 6.66705C20.3125 6.47958 20.0582 6.37427 19.7931 6.37427C19.5279 6.37427 19.2736 6.47958 19.0861 6.66705L9.83306 15.9191Z" fill="#151A2D"/>
</g>
<defs>
<clipPath id="clip0_296_527">
<rect width="24" height="24" fill="white" transform="translate(0.5)"/>
</clipPath>
</defs>
</svg>
