<svg width="70" height="70" viewBox="0 0 70 70" fill="none" xmlns="http://www.w3.org/2000/svg">
<g id="fi-sr-people-carry-box" clip-path="url(#clip0_296_217)">
<path id="Vector" d="M8.74945 7.29167C8.74945 3.26667 12.0161 0 16.0411 0C20.0661 0 23.3328 3.26375 23.3328 7.29167C23.3328 11.3196 20.069 14.5833 16.0411 14.5833C12.0132 14.5833 8.74945 11.3196 8.74945 7.29167ZM53.9578 14.5833C57.9857 14.5833 61.2495 11.3196 61.2495 7.29167C61.2495 3.26375 57.9857 0 53.9578 0C49.9299 0 46.6661 3.26375 46.6661 7.29167C46.6661 11.3196 49.9299 14.5833 53.9578 14.5833ZM7.05195 52.6108C5.50612 52.185 3.89029 53.0658 3.44695 54.6175L0.113205 66.2842C-0.330128 67.83 0.568205 69.4458 2.11695 69.8892C2.38529 69.9621 2.65654 70 2.91904 70C4.18779 70 5.35445 69.1658 5.72195 67.8825L9.0557 56.2158C9.49904 54.67 8.6007 53.0542 7.05195 52.6108ZM69.8857 66.2842L66.552 54.6175C66.1086 53.0688 64.4957 52.185 62.947 52.6108C61.3982 53.0542 60.5028 54.6671 60.9432 56.2158L64.277 67.8825C64.6415 69.1629 65.8111 70 67.0799 70C67.3453 70 67.6165 69.9621 67.882 69.8892C69.4307 69.4458 70.3261 67.8329 69.8857 66.2842ZM64.5686 46.7075L55.4161 52.675V67.0833C55.4161 68.6963 54.1095 70 52.4995 70C50.8895 70 49.5828 68.6963 49.5828 67.0833V51.0942C49.5828 50.1083 50.0815 49.1896 50.907 48.65L55.2732 45.8033L50.5074 27.965L46.6661 34.4458V42.2946C46.6661 46.3167 43.3936 49.5862 39.3745 49.5862H30.6245C26.6053 49.5862 23.3328 46.3167 23.3328 42.2946V34.4458L19.509 27.9971L14.8745 45.8996L19.092 48.65C19.9174 49.1896 20.4161 50.1083 20.4161 51.0942V67.0833C20.4161 68.6963 19.1095 70 17.4995 70C15.8895 70 14.5828 68.6963 14.5828 67.0833V52.675L5.3982 46.6871C1.34987 44.1263 -0.735545 39.2117 0.241538 34.4867L2.4232 26.4367C3.47029 21.3296 8.17487 17.5 13.5649 17.5C17.5782 17.5 21.3407 19.6438 23.3882 23.0971L26.1795 27.8046C27.4132 26.845 28.9445 26.25 30.6274 26.25H39.3774C41.0574 26.25 42.5886 26.845 43.8253 27.8046L46.6165 23.0971C48.664 19.6438 52.4295 17.5 56.4399 17.5C61.8299 17.5 66.5315 21.3296 67.6224 26.6117L69.7165 34.3146C70.7345 39.2175 68.649 44.1263 64.5686 46.7075Z" fill="#E1DDD3"/>
</g>
<defs>
<clipPath id="clip0_296_217">
<rect width="70" height="70" fill="white"/>
</clipPath>
</defs>
</svg>
