<svg width="56" height="56" viewBox="0 0 56 56" fill="none" xmlns="http://www.w3.org/2000/svg">
<g id="fi-rr-remove-user" clip-path="url(#clip0_296_293)">
<path id="Vector" d="M39.4583 55.5C38.8505 55.5 38.2677 55.2586 37.8379 54.8288C37.4081 54.399 37.1667 53.8161 37.1667 53.2083C37.1667 48.9538 35.4766 44.8736 32.4682 41.8652C29.4598 38.8568 25.3795 37.1667 21.125 37.1667C16.8705 37.1667 12.7902 38.8568 9.78183 41.8652C6.77343 44.8736 5.08333 48.9538 5.08333 53.2083C5.08333 53.8161 4.84189 54.399 4.41212 54.8288C3.98235 55.2586 3.39945 55.5 2.79167 55.5C2.18388 55.5 1.60098 55.2586 1.17121 54.8288C0.741443 54.399 0.5 53.8161 0.5 53.2083C0.5 47.7382 2.67299 42.4922 6.54092 38.6243C10.4089 34.7563 15.6549 32.5833 21.125 32.5833C26.5951 32.5833 31.8411 34.7563 35.7091 38.6243C39.577 42.4922 41.75 47.7382 41.75 53.2083C41.75 53.8161 41.5086 54.399 41.0788 54.8288C40.649 55.2586 40.0661 55.5 39.4583 55.5ZM53.2083 30.2917H39.4583C38.8505 30.2917 38.2677 30.0502 37.8379 29.6205C37.4081 29.1907 37.1667 28.6078 37.1667 28C37.1667 27.3922 37.4081 26.8093 37.8379 26.3796C38.2677 25.9498 38.8505 25.7083 39.4583 25.7083H53.2083C53.8161 25.7083 54.399 25.9498 54.8288 26.3796C55.2586 26.8093 55.5 27.3922 55.5 28C55.5 28.6078 55.2586 29.1907 54.8288 29.6205C54.399 30.0502 53.8161 30.2917 53.2083 30.2917ZM21.125 28C18.4055 28 15.7471 27.1936 13.4859 25.6827C11.2247 24.1718 9.46236 22.0244 8.42166 19.5119C7.38095 16.9994 7.10866 14.2348 7.6392 11.5675C8.16975 8.90028 9.47931 6.45026 11.4023 4.52729C13.3253 2.60432 15.7753 1.29476 18.4425 0.764209C21.1097 0.233662 23.8744 0.505958 26.3869 1.54666C28.8994 2.58737 31.0468 4.34974 32.5577 6.61092C34.0686 8.87209 34.875 11.5305 34.875 14.25C34.8714 17.8956 33.4215 21.3909 30.8437 23.9687C28.2659 26.5465 24.7706 27.9964 21.125 28ZM21.125 5.08334C19.312 5.08334 17.5397 5.62096 16.0323 6.6282C14.5248 7.63545 13.3499 9.06709 12.6561 10.7421C11.9623 12.4171 11.7808 14.2602 12.1345 16.0383C12.4882 17.8165 13.3612 19.4498 14.6432 20.7318C15.9252 22.0138 17.5585 22.8868 19.3367 23.2405C21.1148 23.5942 22.9579 23.4127 24.6329 22.7189C26.3079 22.0251 27.7396 20.8502 28.7468 19.3427C29.7541 17.8353 30.2917 16.063 30.2917 14.25C30.2917 11.8189 29.3259 9.48728 27.6068 7.76819C25.8877 6.04911 23.5562 5.08334 21.125 5.08334Z" fill="#151A2D"/>
</g>
<defs>
<clipPath id="clip0_296_293">
<rect width="55" height="55" fill="white" transform="translate(0.5 0.5)"/>
</clipPath>
</defs>
</svg>
