<svg width="56" height="55" viewBox="0 0 56 55" fill="none" xmlns="http://www.w3.org/2000/svg">
<g id="fi-rr-user-add" clip-path="url(#clip0_296_479)">
<path id="Vector" d="M53.2084 25.2084H48.6251V20.625C48.6251 20.0173 48.3836 19.4344 47.9539 19.0046C47.5241 18.5748 46.9412 18.3334 46.3334 18.3334C45.7256 18.3334 45.1427 18.5748 44.713 19.0046C44.2832 19.4344 44.0417 20.0173 44.0417 20.625V25.2084H39.4584C38.8506 25.2084 38.2677 25.4498 37.838 25.8796C37.4082 26.3094 37.1667 26.8923 37.1667 27.5C37.1667 28.1078 37.4082 28.6907 37.838 29.1205C38.2677 29.5503 38.8506 29.7917 39.4584 29.7917H44.0417V34.375C44.0417 34.9828 44.2832 35.5657 44.713 35.9955C45.1427 36.4253 45.7256 36.6667 46.3334 36.6667C46.9412 36.6667 47.5241 36.4253 47.9539 35.9955C48.3836 35.5657 48.6251 34.9828 48.6251 34.375V29.7917H53.2084C53.8162 29.7917 54.3991 29.5503 54.8289 29.1205C55.2586 28.6907 55.5001 28.1078 55.5001 27.5C55.5001 26.8923 55.2586 26.3094 54.8289 25.8796C54.3991 25.4498 53.8162 25.2084 53.2084 25.2084Z" fill="#151A2D"/>
<path id="Vector_2" d="M21.125 27.5C23.8445 27.5 26.5029 26.6936 28.7641 25.1827C31.0253 23.6718 32.7876 21.5244 33.8283 19.0119C34.869 16.4994 35.1413 13.7348 34.6108 11.0675C34.0802 8.40028 32.7707 5.95026 30.8477 4.02729C28.9247 2.10432 26.4747 0.794755 23.8075 0.264209C21.1403 -0.266338 18.3756 0.00595768 15.8631 1.04666C13.3506 2.08737 11.2032 3.84974 9.69229 6.11092C8.18142 8.37209 7.375 11.0305 7.375 13.75C7.37864 17.3956 8.82847 20.8909 11.4063 23.4687C13.9841 26.0465 17.4794 27.4964 21.125 27.5ZM21.125 4.58334C22.938 4.58334 24.7103 5.12096 26.2177 6.1282C27.7252 7.13545 28.9001 8.56709 29.5939 10.2421C30.2877 11.9171 30.4692 13.7602 30.1155 15.5383C29.7618 17.3165 28.8888 18.9498 27.6068 20.2318C26.3248 21.5138 24.6915 22.3868 22.9133 22.7405C21.1352 23.0942 19.2921 22.9127 17.6171 22.2189C15.9421 21.5251 14.5104 20.3502 13.5032 18.8427C12.4959 17.3353 11.9583 15.563 11.9583 13.75C11.9583 11.3189 12.9241 8.98728 14.6432 7.26819C16.3623 5.54911 18.6938 4.58334 21.125 4.58334Z" fill="#151A2D"/>
<path id="Vector_3" d="M21.125 32.0834C15.6568 32.0894 10.4142 34.2644 6.54762 38.131C2.681 41.9976 0.506066 47.2401 0.5 52.7084C0.5 53.3162 0.741443 53.8991 1.17121 54.3288C1.60098 54.7586 2.18388 55 2.79167 55C3.39945 55 3.98235 54.7586 4.41212 54.3288C4.84189 53.8991 5.08333 53.3162 5.08333 52.7084C5.08333 48.4539 6.77343 44.3736 9.78183 41.3652C12.7902 38.3568 16.8705 36.6667 21.125 36.6667C25.3795 36.6667 29.4598 38.3568 32.4682 41.3652C35.4766 44.3736 37.1667 48.4539 37.1667 52.7084C37.1667 53.3162 37.4081 53.8991 37.8379 54.3288C38.2677 54.7586 38.8505 55 39.4583 55C40.0661 55 40.649 54.7586 41.0788 54.3288C41.5086 53.8991 41.75 53.3162 41.75 52.7084C41.7439 47.2401 39.569 41.9976 35.7024 38.131C31.8358 34.2644 26.5932 32.0894 21.125 32.0834Z" fill="#151A2D"/>
</g>
<defs>
<clipPath id="clip0_296_479">
<rect width="55" height="55" fill="white" transform="translate(0.5)"/>
</clipPath>
</defs>
</svg>
