<svg width="25" height="24" viewBox="0 0 25 24" fill="none" xmlns="http://www.w3.org/2000/svg">
<path d="M18.5001 5.99994C18.3125 5.81247 18.0582 5.70715 17.7931 5.70715C17.5279 5.70715 17.2736 5.81247 17.0861 5.99994L12.5001 10.5859L7.91406 5.99994C7.72653 5.81247 7.47223 5.70715 7.20706 5.70715C6.9419 5.70715 6.68759 5.81247 6.50006 5.99994C6.31259 6.18747 6.20728 6.44178 6.20728 6.70694C6.20728 6.9721 6.31259 7.22641 6.50006 7.41394L11.0861 11.9999L6.50006 16.5859C6.31259 16.7735 6.20728 17.0278 6.20728 17.2929C6.20728 17.5581 6.31259 17.8124 6.50006 17.9999C6.68759 18.1874 6.9419 18.2927 7.20706 18.2927C7.47223 18.2927 7.72653 18.1874 7.91406 17.9999L12.5001 13.4139L17.0861 17.9999C17.2736 18.1874 17.5279 18.2927 17.7931 18.2927C18.0582 18.2927 18.3125 18.1874 18.5001 17.9999C18.6875 17.8124 18.7928 17.5581 18.7928 17.2929C18.7928 17.0278 18.6875 16.7735 18.5001 16.5859L13.9141 11.9999L18.5001 7.41394C18.6875 7.22641 18.7928 6.9721 18.7928 6.70694C18.7928 6.44178 18.6875 6.18747 18.5001 5.99994Z" fill="#151A2D"/>
<g clip-path="url(#clip0_296_528)">
<path d="M19.5 0H5.5C4.1744 0.00158786 2.90356 0.528882 1.96622 1.46622C1.02888 2.40356 0.501588 3.6744 0.5 5L0.5 19C0.501588 20.3256 1.02888 21.5964 1.96622 22.5338C2.90356 23.4711 4.1744 23.9984 5.5 24H19.5C20.8256 23.9984 22.0964 23.4711 23.0338 22.5338C23.9711 21.5964 24.4984 20.3256 24.5 19V5C24.4984 3.6744 23.9711 2.40356 23.0338 1.46622C22.0964 0.528882 20.8256 0.00158786 19.5 0ZM22.5 19C22.5 19.7956 22.1839 20.5587 21.6213 21.1213C21.0587 21.6839 20.2956 22 19.5 22H5.5C4.70435 22 3.94129 21.6839 3.37868 21.1213C2.81607 20.5587 2.5 19.7956 2.5 19V5C2.5 4.20435 2.81607 3.44129 3.37868 2.87868C3.94129 2.31607 4.70435 2 5.5 2H19.5C20.2956 2 21.0587 2.31607 21.6213 2.87868C22.1839 3.44129 22.5 4.20435 22.5 5V19Z" fill="#151A2D"/>
</g>
<defs>
<clipPath id="clip0_296_528">
<rect width="24" height="24" fill="white" transform="translate(0.5)"/>
</clipPath>
</defs>
</svg>
