<svg width="56" height="56" viewBox="0 0 56 56" fill="none" xmlns="http://www.w3.org/2000/svg">
<g id="fi-rr-bullseye-arrow" clip-path="url(#clip0_296_471)">
<path id="Vector" d="M55.5 28C55.5 43.1708 43.1708 55.5 28 55.5C12.8292 55.5 0.5 43.1708 0.5 28C0.5 12.8292 12.8292 0.5 28 0.5C29.6729 0.5 31.3688 0.660417 32.9958 0.958333C34.2333 1.1875 35.0583 2.37917 34.8292 3.61667C34.6 4.85417 33.4083 5.67917 32.1708 5.45C30.8188 5.19792 29.3979 5.08333 28 5.08333C15.3729 5.08333 5.08333 15.3729 5.08333 28C5.08333 40.6271 15.3729 50.9167 28 50.9167C40.6271 50.9167 50.9167 40.6271 50.9167 28C50.9167 26.6021 50.7792 25.2042 50.55 23.8292C50.3208 22.5917 51.1458 21.4 52.3833 21.1708C53.6438 20.9417 54.8125 21.7667 55.0417 23.0042C55.3396 24.6313 55.5 26.3271 55.5 28ZM29.9708 14.3875C31.2313 14.5708 32.3771 13.7 32.5604 12.4396C32.7438 11.1792 31.8729 10.0333 30.6125 9.85C29.7417 9.73542 28.8708 9.66667 28 9.66667C17.8938 9.66667 9.66667 17.8938 9.66667 28C9.66667 38.1063 17.8938 46.3333 28 46.3333C38.1063 46.3333 46.3333 38.1063 46.3333 28C46.3333 27.1292 46.2646 26.2583 46.15 25.3875C45.9667 24.1271 44.8208 23.2563 43.5604 23.4396C42.3 23.6229 41.4292 24.7688 41.6125 26.0292C41.7042 26.6708 41.75 27.3354 41.75 28C41.75 35.5854 35.5854 41.75 28 41.75C20.4146 41.75 14.25 35.5854 14.25 28C14.25 20.4146 20.4146 14.25 28 14.25C28.6646 14.25 29.3292 14.2958 29.9708 14.3875ZM24.9521 24.5854C25.8917 23.7375 25.9833 22.2938 25.1354 21.3542C24.2875 20.4146 22.8438 20.3229 21.9042 21.1708C19.9563 22.9125 18.8563 25.4104 18.8563 28C18.8563 33.0646 22.9583 37.1667 28.0229 37.1667C30.6354 37.1667 33.1104 36.0438 34.8521 34.1188C35.7 33.1792 35.6083 31.7354 34.6688 30.8875C33.7292 30.0396 32.2854 30.1313 31.4375 31.0708C30.5667 32.0333 29.3292 32.6063 28.0229 32.6063C25.5021 32.6063 23.4396 30.5438 23.4396 28.0229C23.4396 26.7167 23.9896 25.4792 24.975 24.6083L24.9521 24.5854ZM28.6875 24.0813C27.7938 24.975 27.7938 26.4188 28.6875 27.3125C29.1458 27.7708 29.7188 27.9771 30.3146 27.9771C30.9104 27.9771 31.4833 27.7479 31.9417 27.3125L42.7354 16.5188H48.6708C49.2896 16.5188 49.8625 16.2667 50.2979 15.8542L54.8813 11.2708C55.5458 10.6062 55.7292 9.62083 55.3854 8.77292C55.0417 7.925 54.1938 7.35208 53.2771 7.35208H48.6938V2.79167C48.6938 1.875 48.1438 1.02708 47.2729 0.683333C46.4021 0.316667 45.4396 0.522917 44.775 1.1875L40.1917 5.77083C39.7563 6.20625 39.5271 6.77917 39.5271 7.39792V13.3333L28.7333 24.1271L28.6875 24.0813Z" fill="#151A2D"/>
</g>
<defs>
<clipPath id="clip0_296_471">
<rect width="55" height="55" fill="white" transform="translate(0.5 0.5)"/>
</clipPath>
</defs>
</svg>
