<svg width="56" height="56" viewBox="0 0 56 56" fill="none" xmlns="http://www.w3.org/2000/svg">
<g id="fi-rr-stats" clip-path="url(#clip0_296_291)">
<path id="Vector" d="M53.2083 50.9167H7.375C6.76721 50.9167 6.18432 50.6752 5.75455 50.2455C5.32478 49.8157 5.08333 49.2328 5.08333 48.625V2.79167C5.08333 2.18388 4.84189 1.60098 4.41212 1.17121C3.98235 0.741443 3.39945 0.5 2.79167 0.5C2.18388 0.5 1.60098 0.741443 1.17121 1.17121C0.741443 1.60098 0.5 2.18388 0.5 2.79167L0.5 48.625C0.5 50.4484 1.22433 52.197 2.51364 53.4864C3.80295 54.7757 5.55164 55.5 7.375 55.5H53.2083C53.8161 55.5 54.399 55.2586 54.8288 54.8288C55.2586 54.399 55.5 53.8161 55.5 53.2083C55.5 52.6005 55.2586 52.0177 54.8288 51.5879C54.399 51.1581 53.8161 50.9167 53.2083 50.9167Z" fill="#151A2D"/>
<path id="Vector_2" d="M34.8749 46.3334C35.4827 46.3334 36.0656 46.0919 36.4954 45.6622C36.9251 45.2324 37.1666 44.6495 37.1666 44.0417V28C37.1666 27.3923 36.9251 26.8094 36.4954 26.3796C36.0656 25.9498 35.4827 25.7084 34.8749 25.7084C34.2671 25.7084 33.6842 25.9498 33.2545 26.3796C32.8247 26.8094 32.5833 27.3923 32.5833 28V44.0417C32.5833 44.6495 32.8247 45.2324 33.2545 45.6622C33.6842 46.0919 34.2671 46.3334 34.8749 46.3334Z" fill="#151A2D"/>
<path id="Vector_3" d="M16.5417 46.3334C17.1495 46.3334 17.7323 46.0919 18.1621 45.6622C18.5919 45.2324 18.8333 44.6495 18.8333 44.0417V28C18.8333 27.3923 18.5919 26.8094 18.1621 26.3796C17.7323 25.9498 17.1495 25.7084 16.5417 25.7084C15.9339 25.7084 15.351 25.9498 14.9212 26.3796C14.4914 26.8094 14.25 27.3923 14.25 28V44.0417C14.25 44.6495 14.4914 45.2324 14.9212 45.6622C15.351 46.0919 15.9339 46.3334 16.5417 46.3334Z" fill="#151A2D"/>
<path id="Vector_4" d="M44.0417 46.3333C44.6495 46.3333 45.2323 46.0919 45.6621 45.6621C46.0919 45.2324 46.3333 44.6495 46.3333 44.0417V16.5417C46.3333 15.9339 46.0919 15.351 45.6621 14.9212C45.2323 14.4914 44.6495 14.25 44.0417 14.25C43.4339 14.25 42.851 14.4914 42.4212 14.9212C41.9914 15.351 41.75 15.9339 41.75 16.5417V44.0417C41.75 44.6495 41.9914 45.2324 42.4212 45.6621C42.851 46.0919 43.4339 46.3333 44.0417 46.3333Z" fill="#151A2D"/>
<path id="Vector_5" d="M25.7084 46.3333C26.3162 46.3333 26.8991 46.0919 27.3289 45.6621C27.7586 45.2324 28.0001 44.6495 28.0001 44.0417V16.5417C28.0001 15.9339 27.7586 15.351 27.3289 14.9212C26.8991 14.4914 26.3162 14.25 25.7084 14.25C25.1006 14.25 24.5177 14.4914 24.088 14.9212C23.6582 15.351 23.4167 15.9339 23.4167 16.5417V44.0417C23.4167 44.6495 23.6582 45.2324 24.088 45.6621C24.5177 46.0919 25.1006 46.3333 25.7084 46.3333Z" fill="#151A2D"/>
</g>
<defs>
<clipPath id="clip0_296_291">
<rect width="55" height="55" fill="white" transform="translate(0.5 0.5)"/>
</clipPath>
</defs>
</svg>
