<svg width="24" height="24" viewBox="0 0 24 24" fill="none" xmlns="http://www.w3.org/2000/svg">
<path d="M0 12C0 9.62663 0.703788 7.30655 2.02236 5.33316C3.34094 3.35977 5.21509 1.8217 7.4078 0.913451C9.60051 0.00519943 12.0133 -0.232441 14.3411 0.230582C16.6689 0.693605 18.8071 1.83649 20.4853 3.51472C22.1635 5.19295 23.3064 7.33115 23.7694 9.65892C24.2324 11.9867 23.9948 14.3995 23.0866 16.5922C22.1783 18.7849 20.6402 20.6591 18.6668 21.9776C16.6935 23.2962 14.3734 24 12 24C8.81846 23.9966 5.76821 22.7312 3.51852 20.4815C1.26883 18.2318 0.00344108 15.1815 0 12ZM22 12C22 10.0222 21.4135 8.08879 20.3147 6.4443C19.2159 4.79981 17.6541 3.51809 15.8268 2.76121C13.9996 2.00433 11.9889 1.8063 10.0491 2.19215C8.10929 2.578 6.32746 3.53041 4.92893 4.92894C3.53041 6.32746 2.578 8.10929 2.19215 10.0491C1.8063 11.9889 2.00433 13.9996 2.76121 15.8268C3.51808 17.6541 4.79981 19.2159 6.4443 20.3147C8.08879 21.4135 10.0222 22 12 22C14.6513 21.9971 17.1931 20.9426 19.0679 19.0679C20.9426 17.1931 21.9971 14.6513 22 12ZM12.4 6.26901L7.25 11.356C7.16413 11.4398 7.09589 11.54 7.04929 11.6506C7.0027 11.7612 6.9787 11.88 6.9787 12C6.9787 12.12 7.0027 12.2388 7.04929 12.3494C7.09589 12.46 7.16413 12.5602 7.25 12.644L12.4 17.731C12.5288 17.8589 12.6924 17.946 12.8703 17.9815C13.0483 18.017 13.2328 17.9993 13.4008 17.9306C13.5688 17.8619 13.7128 17.7453 13.8149 17.5953C13.917 17.4452 13.9727 17.2685 13.975 17.087V6.91301C13.9727 6.73154 13.917 6.55476 13.8149 6.40474C13.7128 6.25471 13.5688 6.13808 13.4008 6.06939C13.2328 6.00071 13.0483 5.98301 12.8703 6.01851C12.6924 6.054 12.5288 6.14113 12.4 6.26901Z" fill="#FF0000"/>
</svg>
