<svg width="37" height="37" viewBox="0 0 35 35" fill="none" xmlns="http://www.w3.org/2000/svg">
<g id="fi-rr-chess-board" clip-path="url(#clip0_281_176)">
<path id="Vector" d="M27.7083 0H7.29167C5.35851 0.00231563 3.50519 0.771286 2.13824 2.13824C0.771286 3.50519 0.00231563 5.35851 0 7.29167L0 27.7083C0.00231563 29.6415 0.771286 31.4948 2.13824 32.8618C3.50519 34.2287 5.35851 34.9977 7.29167 35H27.7083C29.6415 34.9977 31.4948 34.2287 32.8618 32.8618C34.2287 31.4948 34.9977 29.6415 35 27.7083V7.29167C34.9977 5.35851 34.2287 3.50519 32.8618 2.13824C31.4948 0.771286 29.6415 0.00231563 27.7083 0ZM32.0833 20.4167V26.25H26.25V32.0833H20.4167V26.25H14.5833V32.0833H8.75V26.25H2.91667V20.4167H8.75V14.5833H2.91667V8.75H8.75V2.91667H14.5833V8.75H20.4167V2.91667H26.25V8.75H32.0833V14.5833H26.25V20.4167H32.0833ZM14.5833 14.5833H8.75V8.75H14.5833V14.5833ZM20.4167 14.5833V8.75H26.25V14.5833H20.4167ZM14.5833 20.4167V26.25H8.75V20.4167H14.5833ZM20.4167 20.4167H26.25V26.25H20.4167V20.4167ZM14.5833 14.5833H20.4167V20.4167H14.5833V14.5833Z" fill="#E1DDD3"/>
</g>
<defs>
<clipPath id="clip0_281_176">
<rect width="35" height="35" fill="white"/>
</clipPath>
</defs>
</svg>
