<svg width="37" height="37" viewBox="0 0 35 35" fill="none" xmlns="http://www.w3.org/2000/svg">
<g id="Group">
<path id="Vector" d="M17.5 21.8647C15.0838 21.8647 13.125 23.8235 13.125 26.2397V34.9897H21.875V26.2397C21.875 23.8235 19.9162 21.8647 17.5 21.8647Z" fill="#151A2D"/>
<g id="Group_2">
<path id="Vector_2" d="M24.7917 26.2394V34.9894H30.625C33.0412 34.9894 35 33.0307 35 30.6144V17.313C35.0003 16.5554 34.7059 15.8273 34.1789 15.283L21.7861 1.88525C19.5994 -0.48067 15.9088 -0.625934 13.5429 1.56075C13.4305 1.66465 13.3222 1.77287 13.2184 1.88525L0.847315 15.2786C0.304404 15.8252 -0.000204975 16.5645 1.03484e-07 17.3349V30.6144C1.03484e-07 33.0307 1.95877 34.9894 4.375 34.9894H10.2083V26.2394C10.2356 22.2628 13.4462 19.0155 17.3227 18.922C21.3288 18.8253 24.7611 22.128 24.7917 26.2394Z" fill="#E1DDD3"/>
<path id="Vector_3" d="M17.5 21.8647C15.0838 21.8647 13.125 23.8235 13.125 26.2397V34.9897H21.875V26.2397C21.875 23.8235 19.9162 21.8647 17.5 21.8647Z" fill="#E1DDD3"/>
</g>
</g>
</svg>
