<svg width="37" height="37" viewBox="0 0 35 35" fill="none" xmlns="http://www.w3.org/2000/svg">
<g id="fi-rr-key" clip-path="url(#clip0_281_167)">
<path id="Vector" d="M10.9448 35C8.30485 34.9983 5.7546 34.0419 3.76463 32.3071C1.77466 30.5724 0.479269 28.1764 0.117496 25.5614C-0.244278 22.9463 0.351978 20.2887 1.79624 18.0788C3.2405 15.869 5.4353 14.2561 7.97563 13.5377C9.82207 13.009 11.7765 12.9848 13.6354 13.4677L25.1679 1.93815C25.7801 1.32169 26.5087 0.832932 27.3113 0.50023C28.1139 0.167528 28.9745 -0.00249346 29.8433 2.76314e-05C31.2106 0.00118618 32.5216 0.544848 33.4884 1.51166C34.4552 2.47847 34.9988 3.78942 35 5.15669C35.0023 6.02555 34.8323 6.88624 34.4999 7.689C34.1674 8.49176 33.6792 9.22066 33.0633 9.83357L32.0833 10.8136C31.535 11.3582 30.7941 11.6647 30.0213 11.6667H27.7083V13.125C27.7083 13.8986 27.401 14.6404 26.8541 15.1874C26.3071 15.7344 25.5652 16.0417 24.7917 16.0417H23.3333V18.3546C23.3344 18.7378 23.2594 19.1173 23.1127 19.4713C22.966 19.8253 22.7505 20.1466 22.4788 20.4167L21.5308 21.3646C22.0164 23.2227 21.9927 25.1772 21.4623 27.0229C20.8654 29.1259 19.6544 31.0028 17.9844 32.4132C16.3143 33.8237 14.2613 34.7036 12.0881 34.9402C11.7083 34.9797 11.3267 34.9997 10.9448 35ZM10.9448 16.0417C9.45168 16.0402 7.9878 16.4556 6.71795 17.241C5.44809 18.0264 4.42267 19.1507 3.75712 20.4873C3.09156 21.8238 2.8123 23.3196 2.95076 24.8063C3.08922 26.293 3.63992 27.7115 4.54085 28.9022C5.44178 30.0929 6.65718 31.0085 8.05024 31.5458C9.44329 32.0832 10.9587 32.2211 12.4259 31.944C13.893 31.6668 15.2537 30.9856 16.3547 29.9771C17.4558 28.9686 18.2534 27.6727 18.6579 26.2354C19.1129 24.6554 19.0619 22.9725 18.5121 21.4229C18.4224 21.1641 18.4073 20.8853 18.4687 20.6184C18.5301 20.3514 18.6654 20.1072 18.8592 19.9136L20.4167 18.3546V16.0417C20.4167 15.2681 20.724 14.5263 21.2709 13.9793C21.8179 13.4323 22.5598 13.125 23.3333 13.125H24.7917V11.6667C24.7917 10.8931 25.099 10.1513 25.6459 9.6043C26.1929 9.05732 26.9348 8.75003 27.7083 8.75003H30.0213L31.0013 7.77003C31.3454 7.42754 31.6182 7.02024 31.8039 6.57168C31.9896 6.12312 32.0846 5.64219 32.0833 5.15669C32.083 4.56298 31.847 3.99367 31.4273 3.57372C31.0077 3.15376 30.4385 2.91747 29.8448 2.91669C29.359 2.9155 28.8777 3.01065 28.4289 3.19664C27.9801 3.38262 27.5726 3.65576 27.23 4.00024L15.0806 16.1482C14.8867 16.3419 14.6422 16.4772 14.3749 16.5383C14.1077 16.5994 13.8287 16.584 13.5698 16.4938C12.7241 16.196 11.8341 16.0432 10.9375 16.0417H10.9448ZM7.29167 26.25C7.29167 26.5385 7.3772 26.8204 7.53745 27.0602C7.69769 27.3001 7.92545 27.487 8.19193 27.5974C8.4584 27.7077 8.75163 27.7366 9.03451 27.6803C9.3174 27.6241 9.57725 27.4852 9.7812 27.2812C9.98516 27.0773 10.124 26.8174 10.1803 26.5345C10.2366 26.2516 10.2077 25.9584 10.0973 25.6919C9.98695 25.4255 9.80004 25.1977 9.56021 25.0375C9.32039 24.8772 9.03844 24.7917 8.75001 24.7917C8.36323 24.7917 7.9923 24.9453 7.71881 25.2188C7.44532 25.4923 7.29167 25.8633 7.29167 26.25Z" fill="#E1DDD3"/>
</g>
<defs>
<clipPath id="clip0_281_167">
<rect width="35" height="35" fill="white"/>
</clipPath>
</defs>
</svg>
