<svg width="24" height="24" viewBox="0 0 24 24" fill="none" xmlns="http://www.w3.org/2000/svg">
<g clip-path="url(#clip0_19_43813)">
<path d="M18 12C18 12.552 17.553 13 17 13H7C6.447 13 6 12.552 6 12C6 11.448 6.447 11 7 11H17C17.553 11 18 11.448 18 12ZM12 9C12.828 9 13.5 8.328 13.5 7.5C13.5 6.672 12.828 6 12 6C11.172 6 10.5 6.672 10.5 7.5C10.5 8.328 11.172 9 12 9ZM12 15C11.172 15 10.5 15.672 10.5 16.5C10.5 17.328 11.172 18 12 18C12.828 18 13.5 17.328 13.5 16.5C13.5 15.672 12.828 15 12 15ZM24 12C24 18.617 18.617 24 12 24C5.383 24 0 18.617 0 12C0 5.383 5.383 0 12 0C18.617 0 24 5.383 24 12ZM22 12C22 6.486 17.514 2 12 2C6.486 2 2 6.486 2 12C2 17.514 6.486 22 12 22C17.514 22 22 17.514 22 12Z" fill="#262a29"/>
</g>
<defs>
<clipPath id="clip0_19_43813">
<rect width="24" height="24" fill="white"/>
</clipPath>
</defs>
</svg>
