<svg width="24" height="24" viewBox="0 0 24 24" fill="none" xmlns="http://www.w3.org/2000/svg">
<g clip-path="url(#clip0_19_43152)">
<path d="M12 0C5.383 0 0 5.383 0 12C0 18.617 5.383 24 12 24C18.617 24 24 18.617 24 12C24 5.383 18.617 0 12 0ZM12 22C6.486 22 2 17.514 2 12C2 6.486 6.486 2 12 2C17.514 2 22 6.486 22 12C22 17.514 17.514 22 12 22ZM17 15C17 15.553 16.553 16 16 16H12C9.669 16 7.684 17.73 7.664 17.747C7.474 17.916 7.237 17.999 7.001 17.999C6.726 17.999 6.451 17.886 6.254 17.663C5.888 17.251 5.923 16.622 6.334 16.254C6.437 16.162 8.893 14 12 14H16C16.553 14 17 14.447 17 15ZM17 9.5C17 10.328 16.328 11 15.5 11C14.672 11 14 10.328 14 9.5C14 8.672 14.672 8 15.5 8C16.328 8 17 8.672 17 9.5ZM7 9.5C7 8.672 7.672 8 8.5 8C9.328 8 10 8.672 10 9.5C10 10.328 9.328 11 8.5 11C7.672 11 7 10.328 7 9.5Z" fill="#262a29"/>
</g>
<defs>
<clipPath id="clip0_19_43152">
<rect width="24" height="24" fill="white"/>
</clipPath>
</defs>
</svg>
