<svg width="24" height="24" viewBox="0 0 24 24" fill="none" xmlns="http://www.w3.org/2000/svg">
<g clip-path="url(#clip0_19_41596)">
<path d="M15.091 15.997C21.662 15.964 24 12.484 24 9.5C24 7.823 22.813 6.42 21.236 6.081C21.372 5.694 21.49 5.339 21.57 5.07C21.923 3.877 21.694 2.616 20.943 1.611C20.177 0.588 19.006 0 17.729 0H6.271C4.994 0 3.822 0.588 3.056 1.612C2.305 2.617 2.077 3.878 2.43 5.07C2.51 5.339 2.627 5.694 2.764 6.081C1.187 6.42 0 7.823 0 9.5C0 12.484 2.339 15.964 8.909 15.997C8.965 16.299 9 16.607 9 16.92V20C9 21.826 7.464 21.992 7 22H6C5.447 22 5 22.447 5 23C5 23.553 5.447 24 6 24H18C18.553 24 19 23.553 19 23C19 22.447 18.553 22 18 22H17.008C16.536 21.992 15 21.826 15 20V16.92C15 16.607 15.035 16.299 15.091 15.997ZM20.5 8C21.327 8 22 8.673 22 9.5C22 11.534 20.391 13.697 15.964 13.97C16.185 13.671 16.438 13.394 16.726 13.149C18.465 11.671 19.659 9.696 20.453 7.99C20.47 7.99 20.483 8 20.5 8ZM2 9.5C2 8.673 2.673 8 3.5 8C3.517 8 3.531 7.991 3.547 7.99C4.341 9.696 5.534 11.67 7.274 13.149C7.562 13.394 7.815 13.67 8.036 13.97C3.609 13.697 2 11.534 2 9.5ZM10.513 22C10.808 21.459 11 20.806 11 20V16.92C11 14.869 10.114 12.94 8.569 11.626C6.8 10.122 5.222 7.459 4.348 4.504C4.176 3.921 4.288 3.304 4.659 2.81C5.043 2.295 5.631 2 6.271 2H17.728C18.368 2 18.956 2.295 19.34 2.809C19.709 3.304 19.822 3.921 19.651 4.503C18.776 7.46 17.198 10.122 15.43 11.626C13.885 12.939 12.999 14.869 12.999 16.92V20C12.999 20.806 13.19 21.459 13.486 22H10.513ZM9.791 9.763C9.527 9.581 9.416 9.245 9.521 8.941L10.04 7.335L8.674 6.335C8.347 6.095 8.276 5.636 8.516 5.309C8.654 5.121 8.874 5.009 9.107 5.009H10.788L11.299 3.416C11.428 3.029 11.846 2.821 12.233 2.95C12.453 3.023 12.626 3.196 12.699 3.416L13.209 5.009H14.89C15.295 5.009 15.624 5.337 15.624 5.743C15.624 5.978 15.512 6.198 15.323 6.336L13.957 7.336L14.476 8.942C14.6 9.328 14.388 9.742 14.001 9.867C13.777 9.939 13.532 9.899 13.342 9.76L11.999 8.772L10.655 9.759C10.399 9.95 10.049 9.951 9.791 9.763Z" fill="#262a29"/>
</g>
<defs>
<clipPath id="clip0_19_41596">
<rect width="24" height="24" fill="white"/>
</clipPath>
</defs>
</svg>
