<svg width="25" height="24" viewBox="0 0 25 24" fill="none" xmlns="http://www.w3.org/2000/svg">
<g clip-path="url(#clip0_291_231)">
<path d="M18.714 9.098C19.101 9.492 19.095 10.125 18.7 10.512L14.274 14.857C13.491 15.625 12.483 16.008 11.474 16.008C10.476 16.008 9.478 15.632 8.698 14.879L6.799 13.012C6.405 12.625 6.4 11.992 6.787 11.598C7.173 11.203 7.808 11.198 8.201 11.586L10.094 13.447C10.87 14.197 12.095 14.193 12.875 13.429L17.3 9.085C17.693 8.697 18.324 8.704 18.714 9.098ZM24.5 12C24.5 18.617 19.117 24 12.5 24C5.883 24 0.5 18.617 0.5 12C0.5 5.383 5.883 0 12.5 0C19.117 0 24.5 5.383 24.5 12ZM22.5 12C22.5 6.486 18.014 2 12.5 2C6.986 2 2.5 6.486 2.5 12C2.5 17.514 6.986 22 12.5 22C18.014 22 22.5 17.514 22.5 12Z" fill="#E1DDD3"/>
</g>
<defs>
<clipPath id="clip0_291_231">
<rect width="24" height="24" fill="white" transform="translate(0.5)"/>
</clipPath>
</defs>
</svg>
