<svg width="24" height="24" viewBox="0 0 24 24" fill="none" xmlns="http://www.w3.org/2000/svg">
<g clip-path="url(#clip0_291_220)">
<path d="M16.0004 7.99982C15.8129 7.81235 15.5586 7.70703 15.2934 7.70703C15.0283 7.70703 14.774 7.81235 14.5864 7.99982L12.0004 10.5858L9.41444 7.99982C9.22584 7.81766 8.97323 7.71687 8.71104 7.71914C8.44884 7.72142 8.19803 7.82659 8.01262 8.012C7.82721 8.19741 7.72204 8.44822 7.71976 8.71042C7.71749 8.97261 7.81828 9.22522 8.00044 9.41382L10.5864 11.9998L8.00044 14.5858C7.81828 14.7744 7.71749 15.027 7.71976 15.2892C7.72204 15.5514 7.82721 15.8022 8.01262 15.9876C8.19803 16.173 8.44884 16.2782 8.71104 16.2805C8.97323 16.2828 9.22584 16.182 9.41444 15.9998L12.0004 13.4138L14.5864 15.9998C14.775 16.182 15.0276 16.2828 15.2898 16.2805C15.552 16.2782 15.8028 16.173 15.9883 15.9876C16.1737 15.8022 16.2788 15.5514 16.2811 15.2892C16.2834 15.027 16.1826 14.7744 16.0004 14.5858L13.4144 11.9998L16.0004 9.41382C16.1879 9.22629 16.2932 8.97198 16.2932 8.70682C16.2932 8.44165 16.1879 8.18735 16.0004 7.99982Z" fill="#E1DDD3"/>
<path d="M12 0C9.62663 0 7.30655 0.703788 5.33316 2.02236C3.35977 3.34094 1.8217 5.21509 0.913451 7.4078C0.00519943 9.60051 -0.232441 12.0133 0.230582 14.3411C0.693605 16.6689 1.83649 18.8071 3.51472 20.4853C5.19295 22.1635 7.33115 23.3064 9.65892 23.7694C11.9867 24.2324 14.3995 23.9948 16.5922 23.0866C18.7849 22.1783 20.6591 20.6402 21.9776 18.6668C23.2962 16.6935 24 14.3734 24 12C23.9966 8.81846 22.7312 5.76821 20.4815 3.51852C18.2318 1.26883 15.1815 0.00344108 12 0ZM12 22C10.0222 22 8.08879 21.4135 6.4443 20.3147C4.79981 19.2159 3.51809 17.6541 2.76121 15.8268C2.00433 13.9996 1.8063 11.9889 2.19215 10.0491C2.578 8.10929 3.53041 6.32746 4.92894 4.92893C6.32746 3.53041 8.10929 2.578 10.0491 2.19215C11.9889 1.8063 13.9996 2.00433 15.8268 2.7612C17.6541 3.51808 19.2159 4.79981 20.3147 6.4443C21.4135 8.08879 22 10.0222 22 12C21.9971 14.6513 20.9426 17.1931 19.0679 19.0679C17.1931 20.9426 14.6513 21.9971 12 22Z" fill="#E1DDD3"/>
</g>
<defs>
<clipPath id="clip0_291_220">
<rect width="24" height="24" fill="white"/>
</clipPath>
</defs>
</svg>
